<svg width="201" height="201" viewBox="0 0 201 201" fill="none" xmlns="http://www.w3.org/2000/svg">
<path fill-rule="evenodd" clip-rule="evenodd" d="M150.017 13.4142C197.846 41.0284 214.233 102.187 186.619 150.017C159.005 197.846 97.846 214.233 50.0167 186.619C2.18743 159.005 -14.2001 97.8459 13.4142 50.0167C41.0284 2.18743 102.187 -14.2001 150.017 13.4142ZM140.017 30.7347C111.319 14.1661 79.1009 16.244 68.0552 35.3757C57.0095 54.5074 71.3191 83.4481 100.017 100.017C128.714 116.585 160.933 114.507 171.978 95.3757C183.024 76.244 168.714 47.3032 140.017 30.7347Z" fill="white"/>
<path d="M145.997 80.3757C140.475 89.9415 124.365 90.9805 110.017 82.6962C95.6679 74.4119 88.5131 59.9415 94.0359 50.3757C99.5588 40.8098 115.668 39.7709 130.017 48.0552C144.365 56.3394 151.52 70.8098 145.997 80.3757Z" fill="white"/>
</svg>
