<svg width="614" height="121" viewBox="0 0 614 121" fill="none" xmlns="http://www.w3.org/2000/svg">
<path d="M184.11 98.91C180.377 98.91 176.91 98.2433 173.71 96.91C170.577 95.51 168.043 93.4767 166.11 90.81L167.51 87.71V97.71H153.51V22.01H168.51V53.51L166.21 50.51C168.01 47.7767 170.443 45.6767 173.51 44.21C176.643 42.6767 180.21 41.91 184.21 41.91C189.41 41.91 194.11 43.1767 198.31 45.71C202.51 48.2433 205.843 51.6767 208.31 56.01C210.777 60.2767 212.01 65.0767 212.01 70.41C212.01 75.6767 210.777 80.4767 208.31 84.81C205.91 89.1433 202.61 92.5767 198.41 95.11C194.21 97.6433 189.443 98.91 184.11 98.91ZM182.31 85.41C185.11 85.41 187.577 84.7767 189.71 83.51C191.843 82.2433 193.51 80.4767 194.71 78.21C195.91 75.9433 196.51 73.3433 196.51 70.41C196.51 67.4767 195.91 64.91 194.71 62.71C193.51 60.4433 191.843 58.6767 189.71 57.41C187.577 56.0767 185.11 55.41 182.31 55.41C179.643 55.41 177.243 56.0433 175.11 57.31C173.043 58.5767 171.41 60.3433 170.21 62.61C169.077 64.8767 168.51 67.4767 168.51 70.41C168.51 73.3433 169.077 75.9433 170.21 78.21C171.41 80.4767 173.043 82.2433 175.11 83.51C177.243 84.7767 179.643 85.41 182.31 85.41Z" fill="black"/>
<path d="M237.395 98.91C232.995 98.91 229.229 97.9767 226.095 96.11C223.029 94.1767 220.695 91.51 219.095 88.11C217.495 84.71 216.695 80.7433 216.695 76.21V43.11H231.695V75.01C231.695 77.0767 232.095 78.91 232.895 80.51C233.762 82.0433 234.962 83.2433 236.495 84.11C238.029 84.9767 239.762 85.41 241.695 85.41C243.695 85.41 245.428 84.9767 246.895 84.11C248.428 83.2433 249.595 82.0433 250.395 80.51C251.262 78.91 251.695 77.0767 251.695 75.01V43.11H266.695V97.71H252.695V86.91L253.495 89.31C252.229 92.5767 250.162 95.01 247.295 96.61C244.495 98.1433 241.195 98.91 237.395 98.91Z" fill="black"/>
<path d="M301.758 98.91C296.358 98.91 291.425 97.6767 286.958 95.21C282.558 92.7433 279.025 89.3767 276.358 85.11C273.758 80.7767 272.458 75.8767 272.458 70.41C272.458 64.8767 273.758 59.9767 276.358 55.71C279.025 51.4433 282.558 48.0767 286.958 45.61C291.425 43.1433 296.358 41.91 301.758 41.91C307.158 41.91 312.058 43.1433 316.458 45.61C320.858 48.0767 324.358 51.4433 326.958 55.71C329.625 59.9767 330.958 64.8767 330.958 70.41C330.958 75.8767 329.625 80.7767 326.958 85.11C324.358 89.3767 320.858 92.7433 316.458 95.21C312.058 97.6767 307.158 98.91 301.758 98.91ZM301.758 85.41C304.492 85.41 306.858 84.7767 308.858 83.51C310.925 82.2433 312.525 80.4767 313.658 78.21C314.858 75.9433 315.458 73.3433 315.458 70.41C315.458 67.4767 314.858 64.91 313.658 62.71C312.525 60.4433 310.925 58.6767 308.858 57.41C306.858 56.0767 304.492 55.41 301.758 55.41C299.025 55.41 296.625 56.0767 294.558 57.41C292.492 58.6767 290.858 60.4433 289.658 62.71C288.525 64.91 287.958 67.4767 287.958 70.41C287.958 73.3433 288.525 75.9433 289.658 78.21C290.858 80.4767 292.492 82.2433 294.558 83.51C296.625 84.7767 299.025 85.41 301.758 85.41Z" fill="black"/>
<path d="M344.319 119.71C342.719 119.71 341.152 119.577 339.619 119.31C338.152 119.043 336.852 118.61 335.719 118.01V105.71C336.652 105.977 337.752 106.21 339.019 106.41C340.285 106.61 341.452 106.71 342.519 106.71C345.452 106.71 347.552 106.01 348.819 104.61C350.085 103.277 351.119 101.743 351.919 100.01L355.619 91.51L355.419 104.01L331.419 43.11H347.519L363.419 86.41H357.419L373.319 43.11H389.419L366.019 102.81C364.552 106.543 362.752 109.677 360.619 112.21C358.485 114.743 356.052 116.61 353.319 117.81C350.652 119.077 347.652 119.71 344.319 119.71Z" fill="black"/>
<path d="M407.922 98.91C403.988 98.91 400.588 98.2767 397.722 97.01C394.855 95.7433 392.655 93.9434 391.122 91.61C389.588 89.21 388.822 86.3767 388.822 83.11C388.822 80.0433 389.522 77.3433 390.922 75.01C392.322 72.61 394.455 70.61 397.322 69.01C400.255 67.41 403.888 66.2767 408.222 65.61L424.922 62.91V73.91L410.922 76.41C408.788 76.81 407.155 77.51 406.022 78.51C404.888 79.4433 404.322 80.81 404.322 82.61C404.322 84.2767 404.955 85.5767 406.222 86.51C407.488 87.4433 409.055 87.91 410.922 87.91C413.388 87.91 415.555 87.3767 417.422 86.31C419.288 85.2433 420.722 83.81 421.722 82.01C422.788 80.1433 423.322 78.11 423.322 75.91V61.71C423.322 59.6433 422.488 57.91 420.822 56.51C419.222 55.11 417.022 54.41 414.222 54.41C411.555 54.41 409.188 55.1433 407.122 56.61C405.122 58.0767 403.655 60.01 402.722 62.41L390.722 56.71C391.788 53.6433 393.488 51.01 395.822 48.81C398.155 46.61 400.955 44.91 404.222 43.71C407.488 42.51 411.055 41.91 414.922 41.91C419.522 41.91 423.588 42.7433 427.122 44.41C430.655 46.0767 433.388 48.41 435.322 51.41C437.322 54.3433 438.322 57.7767 438.322 61.71V97.71H424.322V88.91L427.722 88.31C426.122 90.71 424.355 92.71 422.422 94.31C420.488 95.8433 418.322 96.9767 415.922 97.71C413.522 98.51 410.855 98.91 407.922 98.91Z" fill="black"/>
<path d="M446.323 97.71V43.11H460.323V53.91L459.523 51.51C460.789 48.2433 462.823 45.8433 465.622 44.31C468.489 42.71 471.823 41.91 475.622 41.91C479.756 41.91 483.356 42.7767 486.423 44.51C489.556 46.2433 491.989 48.6767 493.723 51.81C495.456 54.8767 496.323 58.4767 496.323 62.61V97.71H481.323V65.81C481.323 63.6767 480.889 61.8433 480.023 60.31C479.223 58.7767 478.056 57.5767 476.523 56.71C475.056 55.8433 473.323 55.41 471.323 55.41C469.389 55.41 467.656 55.8433 466.122 56.71C464.589 57.5767 463.389 58.7767 462.523 60.31C461.723 61.8433 461.323 63.6767 461.323 65.81V97.71H446.323Z" fill="black"/>
<path d="M529.986 98.91C524.519 98.91 519.586 97.6767 515.186 95.21C510.852 92.6767 507.386 89.2433 504.786 84.91C502.252 80.5767 500.986 75.71 500.986 70.31C500.986 64.91 502.252 60.0767 504.786 55.81C507.319 51.4767 510.786 48.0767 515.186 45.61C519.586 43.1433 524.519 41.91 529.986 41.91C534.052 41.91 537.819 42.61 541.286 44.01C544.752 45.41 547.719 47.3767 550.186 49.91C552.652 52.3767 554.419 55.31 555.486 58.71L542.486 64.31C541.552 61.5767 539.952 59.41 537.686 57.81C535.486 56.21 532.919 55.41 529.986 55.41C527.386 55.41 525.052 56.0433 522.986 57.31C520.986 58.5767 519.386 60.3433 518.186 62.61C517.052 64.8767 516.486 67.4767 516.486 70.41C516.486 73.3433 517.052 75.9433 518.186 78.21C519.386 80.4767 520.986 82.2433 522.986 83.51C525.052 84.7767 527.386 85.41 529.986 85.41C532.986 85.41 535.586 84.61 537.786 83.01C539.986 81.41 541.552 79.2433 542.486 76.51L555.486 82.21C554.486 85.41 552.752 88.2767 550.286 90.81C547.819 93.3433 544.852 95.3433 541.386 96.81C537.919 98.21 534.119 98.91 529.986 98.91Z" fill="black"/>
<path d="M587.619 98.91C581.819 98.91 576.785 97.6433 572.519 95.11C568.252 92.51 564.952 89.0433 562.619 84.71C560.285 80.3767 559.119 75.5767 559.119 70.31C559.119 64.8433 560.319 59.9767 562.719 55.71C565.185 51.4433 568.485 48.0767 572.619 45.61C576.752 43.1433 581.419 41.91 586.619 41.91C590.952 41.91 594.785 42.61 598.119 44.01C601.452 45.3433 604.252 47.2433 606.519 49.71C608.852 52.1767 610.619 55.0433 611.819 58.31C613.019 61.51 613.619 65.01 613.619 68.81C613.619 69.8767 613.552 70.9433 613.419 72.01C613.352 73.01 613.185 73.8767 612.919 74.61H572.019V63.61H604.419L597.319 68.81C597.985 65.9433 597.952 63.41 597.219 61.21C596.485 58.9433 595.185 57.1767 593.319 55.91C591.519 54.5767 589.285 53.91 586.619 53.91C584.019 53.91 581.785 54.5433 579.919 55.81C578.052 57.0767 576.652 58.9433 575.719 61.41C574.785 63.8767 574.419 66.8767 574.619 70.41C574.352 73.4767 574.719 76.1767 575.719 78.51C576.719 80.8433 578.252 82.6767 580.319 84.01C582.385 85.2767 584.885 85.91 587.819 85.91C590.485 85.91 592.752 85.3767 594.619 84.31C596.552 83.2433 598.052 81.7767 599.119 79.91L611.119 85.61C610.052 88.2767 608.352 90.61 606.019 92.61C603.752 94.61 601.052 96.1767 597.919 97.31C594.785 98.3767 591.352 98.91 587.619 98.91Z" fill="black"/>
<path fill-rule="evenodd" clip-rule="evenodd" d="M90.01 8.04849C118.708 24.617 128.54 61.3125 111.972 90.01C95.403 118.708 58.7076 128.54 30.01 111.972C1.31246 95.403 -8.52005 58.7076 8.0485 30.01C24.617 1.31246 61.3125 -8.52005 90.01 8.04849ZM84.01 18.4408C66.7915 8.49967 47.4605 9.74639 40.8331 21.2254C34.2057 32.7044 42.7915 50.0689 60.01 60.01C77.2286 69.9511 96.5595 68.7044 103.187 57.2254C109.814 45.7464 101.229 28.3819 84.01 18.4408Z" fill="black"/>
<path d="M87.5985 48.2254C84.2848 53.9649 74.6193 54.5883 66.01 49.6177C57.4007 44.6472 53.1079 35.9649 56.4216 30.2254C59.7353 24.4859 69.4007 23.8625 78.01 28.8331C86.6193 33.8037 90.9122 42.4859 87.5985 48.2254Z" fill="black"/>
</svg>
